<svg xmlns="http://www.w3.org/2000/svg" width="30" height="30" viewBox="0 0 30 30">
  <g id="Group_592" data-name="Group 592" transform="translate(0.127 0.383)">
    <g id="Group_361" data-name="Group 361" transform="translate(4.936 4.936)">
      <g id="opacity_black_24dp">
        <path id="Path_160" data-name="Path 160" d="M19.77,0H0V19.77H19.77Zm0,0H0V19.77H19.77ZM0,19.77H19.77V0H0Z" fill="none"/>
        <path id="Path_161" data-name="Path 161" d="M15.252,7,10.59,2.35,5.928,7a6.59,6.59,0,1,0,9.325,0Zm-9.6,4.942A4.69,4.69,0,0,1,7.1,8.322L10.59,4.755l3.493,3.608a4.586,4.586,0,0,1,1.45,3.583Z" transform="translate(-0.705 -0.414)" fill="#fff"/>
      </g>
    </g>
    <rect id="Rectangle_108" data-name="Rectangle 108" width="30" height="30" transform="translate(-0.127 -0.383)" fill="none"/>
  </g>
</svg>
